<?xml version="1.0" encoding="UTF-8"?>
<!DOCTYPE svg PUBLIC "-//W3C//DTD SVG 1.1//EN" "http://www.w3.org/Graphics/SVG/1.1/DTD/svg11.dtd">
<svg xmlns="http://www.w3.org/2000/svg" version="1.1" width="2181px" height="532px" style="shape-rendering:geometricPrecision; text-rendering:geometricPrecision; image-rendering:optimizeQuality; fill-rule:evenodd; clip-rule:evenodd" xmlns:xlink="http://www.w3.org/1999/xlink">
<g><path style="opacity:0.821" fill="#000000" d="M 1532.5,20.5 C 1548.11,21.9679 1553.78,30.3012 1549.5,45.5C 1543.11,53.7952 1535.11,55.6286 1525.5,51C 1523.29,49.1266 1521.46,46.96 1520,44.5C 1516.65,32.1916 1520.81,24.1916 1532.5,20.5 Z"/></g>
<g><path style="opacity:0.864" fill="#000000" d="M 1002.5,21.5 C 1030.89,20.5289 1052.22,32.0289 1066.5,56C 1078.11,83.421 1073.94,107.921 1054,129.5C 1039.93,142.712 1023.43,151.712 1004.5,156.5C 1004.73,158.433 1005.56,160.1 1007,161.5C 1030.75,185.184 1054.42,208.85 1078,232.5C 1090.76,212.923 1096.93,191.256 1096.5,167.5C 1096.08,158.784 1095.58,150.117 1095,141.5C 1098.42,140.852 1101.92,140.518 1105.5,140.5C 1109.36,140.579 1113.02,141.246 1116.5,142.5C 1121.28,173.603 1117.11,203.269 1104,231.5C 1101.14,237.266 1097.64,242.6 1093.5,247.5C 1107.45,261.737 1121.61,275.737 1136,289.5C 1136.48,290.448 1136.65,291.448 1136.5,292.5C 1126.83,292.666 1117.16,292.5 1107.5,292C 1098.47,283.06 1089.3,274.227 1080,265.5C 1050.26,291.515 1015.59,302.182 976,297.5C 925.295,288.812 903.295,258.812 910,207.5C 915.341,191.644 924.508,178.477 937.5,168C 946.389,161.234 956.056,155.568 966.5,151C 950.03,135.521 939.53,116.688 935,94.5C 933.8,59.3707 949.633,35.8707 982.5,24C 989.308,23.1167 995.975,22.2834 1002.5,21.5 Z M 1001.5,41.5 C 1014.88,41.713 1026.88,45.713 1037.5,53.5C 1047.86,64.4418 1052.03,77.4418 1050,92.5C 1048.84,97.617 1047.17,102.617 1045,107.5C 1036.26,118.56 1025.43,127.06 1012.5,133C 1004.42,135.581 996.589,138.748 989,142.5C 972.996,130.144 962.663,114.144 958,94.5C 955.194,72.2439 963.528,55.9106 983,45.5C 989.055,43.3068 995.221,41.9735 1001.5,41.5 Z M 981.5,166.5 C 1009.3,193.992 1036.8,221.325 1064,248.5C 1064.62,249.449 1064.45,250.282 1063.5,251C 1033.65,276.777 999.655,283.944 961.5,272.5C 939.011,262.215 928.844,244.549 931,219.5C 932.817,205.012 939.317,193.179 950.5,184C 960.076,176.781 970.409,170.947 981.5,166.5 Z"/></g>
<g><path style="opacity:0.886" fill="#000000" d="M 13.5,26.5 C 19.1764,26.3339 24.8431,26.5006 30.5,27C 31.3081,27.3076 31.9747,27.8076 32.5,28.5C 65.3446,70.7192 98.3446,112.719 131.5,154.5C 164.829,112.261 198.163,69.9277 231.5,27.5C 237.722,26.1913 243.889,26.1913 250,27.5C 250.5,115.833 250.667,204.166 250.5,292.5C 243.167,292.5 235.833,292.5 228.5,292.5C 228.833,217.497 228.5,142.497 227.5,67.5C 198.333,105.167 169.167,142.833 140,180.5C 137.967,183.532 135.3,185.865 132,187.5C 128.85,187.022 126.516,185.355 125,182.5C 95.0788,143.571 64.7454,104.904 34,66.5C 33.5,141.833 33.3333,217.166 33.5,292.5C 26.8333,292.5 20.1667,292.5 13.5,292.5C 13.5,203.833 13.5,115.167 13.5,26.5 Z"/></g>
<g><path style="opacity:0.868" fill="#000000" d="M 1230.5,26.5 C 1268.5,26.3333 1306.5,26.5 1344.5,27C 1362.43,28.2595 1379.1,33.4262 1394.5,42.5C 1415.69,61.3283 1424.19,84.995 1420,113.5C 1415.73,139.214 1401.56,157.047 1377.5,167C 1370.65,168.399 1363.98,170.232 1357.5,172.5C 1377.05,207.302 1396.88,241.968 1417,276.5C 1419.81,281.775 1422.31,287.108 1424.5,292.5C 1415.83,292.5 1407.17,292.5 1398.5,292.5C 1376.82,252.491 1355.15,212.491 1333.5,172.5C 1306.17,172.5 1278.83,172.5 1251.5,172.5C 1251.5,212.5 1251.5,252.5 1251.5,292.5C 1244.17,292.5 1236.83,292.5 1229.5,292.5C 1229.5,245.833 1229.5,199.167 1229.5,152.5C 1268.83,152.667 1308.17,152.5 1347.5,152C 1379.12,149.21 1396.12,132.043 1398.5,100.5C 1398.36,80.5632 1389.86,65.5632 1373,55.5C 1366.12,52.323 1358.96,50.1564 1351.5,49C 1319.17,48.6667 1286.83,48.3333 1254.5,48C 1246.48,47.8316 1238.48,47.3316 1230.5,46.5C 1229.21,39.8339 1229.21,33.1672 1230.5,26.5 Z"/></g>
<g><path style="opacity:0.866" fill="#000000" d="M 1675.5,47.5 C 1681.55,47.3032 1687.55,47.6365 1693.5,48.5C 1693.33,66.8364 1693.5,85.1697 1694,103.5C 1708.43,102.344 1722.93,102.177 1737.5,103C 1738.42,103.374 1739.25,103.874 1740,104.5C 1740.81,110.749 1740.64,116.916 1739.5,123C 1724.17,123.5 1708.84,123.667 1693.5,123.5C 1693.33,165.835 1693.5,208.168 1694,250.5C 1694.64,257.821 1697.47,263.987 1702.5,269C 1704.78,269.473 1706.78,270.473 1708.5,272C 1718.69,273.276 1728.86,273.776 1739,273.5C 1739.91,279.612 1739.58,285.612 1738,291.5C 1732.07,292.172 1726.24,293.172 1720.5,294.5C 1709.84,293.893 1699.84,291.06 1690.5,286C 1682.81,280.321 1677.64,272.821 1675,263.5C 1673.54,216.863 1673.04,170.196 1673.5,123.5C 1660.5,123.667 1647.5,123.5 1634.5,123C 1633.36,116.916 1633.19,110.749 1634,104.5C 1634.75,103.874 1635.58,103.374 1636.5,103C 1648.87,102.543 1661.04,102.377 1673,102.5C 1672.87,83.9341 1673.7,65.6007 1675.5,47.5 Z"/></g>
<g><path style="opacity:0.864" fill="#000000" d="M 1841.5,47.5 C 1847.21,47.313 1852.88,47.6463 1858.5,48.5C 1858.17,66.8454 1858.5,85.1788 1859.5,103.5C 1873.79,102.351 1888.12,102.184 1902.5,103C 1903.42,103.374 1904.25,103.874 1905,104.5C 1905.81,110.749 1905.64,116.916 1904.5,123C 1889.17,123.5 1873.84,123.667 1858.5,123.5C 1858.33,166.501 1858.5,209.501 1859,252.5C 1861.83,267.324 1870.83,274.324 1886,273.5C 1890.35,273.323 1894.68,272.989 1899,272.5C 1900.98,272.629 1902.65,273.296 1904,274.5C 1904.67,279.833 1904.67,285.167 1904,290.5C 1903.5,291 1903,291.5 1902.5,292C 1896.49,292.239 1890.65,293.072 1885,294.5C 1874.58,293.842 1864.74,291.009 1855.5,286C 1846.98,280.144 1841.65,272.144 1839.5,262C 1838.51,215.853 1838.18,169.686 1838.5,123.5C 1825.5,123.667 1812.5,123.5 1799.5,123C 1798.36,116.916 1798.19,110.749 1799,104.5C 1799.75,103.874 1800.58,103.374 1801.5,103C 1813.55,102.188 1825.55,102.354 1837.5,103.5C 1838.5,85.1788 1838.83,66.8454 1838.5,48.5C 1839.79,48.7373 1840.79,48.404 1841.5,47.5 Z"/></g>
<g><path style="opacity:0.86" fill="#000000" d="M 433.5,98.5 C 450.518,97.4453 467.018,99.7786 483,105.5C 504.359,114.878 516.692,131.211 520,154.5C 521.057,194.162 522.057,233.829 523,273.5C 524.116,279.862 525.282,286.196 526.5,292.5C 519.442,292.797 512.442,292.464 505.5,291.5C 503.868,281.829 502.368,272.162 501,262.5C 485.393,282.602 464.893,294.102 439.5,297C 423.275,298.27 407.442,296.436 392,291.5C 370.218,282.038 359.718,265.371 360.5,241.5C 360.278,234.689 361.112,228.022 363,221.5C 365.658,216.186 368.825,211.186 372.5,206.5C 382.252,197.617 393.585,191.45 406.5,188C 437.815,182.729 469.149,178.229 500.5,174.5C 500.786,161.48 498.12,149.147 492.5,137.5C 479.621,123.264 463.455,116.597 444,117.5C 429.426,117.642 415.926,121.309 403.5,128.5C 394.067,136.324 388.067,146.324 385.5,158.5C 378.558,159.464 371.558,159.797 364.5,159.5C 368.487,131.361 383.82,112.527 410.5,103C 418.475,101.896 426.142,100.396 433.5,98.5 Z M 498.5,193.5 C 506.174,234.908 490.007,262.241 450,275.5C 432.643,280.282 415.643,279.282 399,272.5C 395.008,269.216 391.008,265.882 387,262.5C 375.269,240.614 379.936,223.281 401,210.5C 407.571,207.649 414.404,205.482 421.5,204C 447.509,201.207 473.176,197.707 498.5,193.5 Z"/></g>
<g><path style="opacity:0.861" fill="#000000" d="M 705.5,98.5 C 728.522,97.1528 749.522,102.819 768.5,115.5C 775.207,121.375 781.04,128.042 786,135.5C 786.333,125.167 786.667,114.833 787,104.5C 790.098,102.953 793.431,102.286 797,102.5C 800.569,102.286 803.902,102.953 807,104.5C 807.833,168.503 807.667,232.503 806.5,296.5C 801.662,339.163 778.329,364.663 736.5,373C 714.682,375.968 693.848,373.135 674,364.5C 655.048,354.884 641.714,340.217 634,320.5C 633.503,318.19 633.337,315.857 633.5,313.5C 640.833,313.5 648.167,313.5 655.5,313.5C 656.454,317.276 657.788,320.943 659.5,324.5C 666.538,334.712 675.538,342.546 686.5,348C 711.131,357.645 735.131,356.478 758.5,344.5C 774.982,332.351 784.149,316.018 786,295.5C 786.667,282.833 786.667,270.167 786,257.5C 774.604,274.137 759.104,285.303 739.5,291C 729.772,292.206 720.106,293.206 710.5,294C 672.661,291.46 646.161,272.96 631,238.5C 618.256,202.453 621.589,168.119 641,135.5C 646.195,129.641 651.362,123.808 656.5,118C 671.264,107.4 687.598,100.9 705.5,98.5 Z M 703.5,118.5 C 745.756,115.02 772.923,133.353 785,173.5C 791.998,204.843 785.164,232.51 764.5,256.5C 741.7,274.358 716.367,278.524 688.5,269C 658.997,254.026 644.663,229.693 645.5,196C 645.084,164.318 658.417,140.651 685.5,125C 690.855,122.327 696.522,120.66 702.5,120C 703.056,119.617 703.389,119.117 703.5,118.5 Z"/></g>
<g><path style="opacity:0.863" fill="#000000" d="M 2065.5,98.5 C 2115.82,97.6843 2147.65,121.351 2161,169.5C 2162.53,181.123 2162.86,192.79 2162,204.5C 2108.57,205.497 2055.07,205.831 2001.5,205.5C 2003.3,228.431 2012.63,247.598 2029.5,263C 2062.56,284.68 2094.06,282.514 2124,256.5C 2126.72,252.564 2129.56,248.731 2132.5,245C 2134.5,240.653 2136.5,236.319 2138.5,232C 2145.49,231.5 2152.49,231.334 2159.5,231.5C 2159.6,234.219 2159.27,236.885 2158.5,239.5C 2142.39,277.236 2113.72,296.57 2072.5,297.5C 2021.78,294.723 1991.62,268.39 1982,218.5C 1976.86,187.421 1983.19,159.088 2001,133.5C 2017.76,112.987 2039.26,101.321 2065.5,98.5 Z M 2064.5,118.5 C 2110.45,118.463 2136.45,141.13 2142.5,186.5C 2096.17,186.5 2049.83,186.5 2003.5,186.5C 2005.59,161.125 2017.26,141.625 2038.5,128C 2046.35,123.916 2054.68,121.249 2063.5,120C 2064.06,119.617 2064.39,119.117 2064.5,118.5 Z"/></g>
<g><path style="opacity:0.893" fill="#000000" d="M 1526.5,102.5 C 1531.84,102.334 1537.18,102.501 1542.5,103C 1543.42,103.374 1544.25,103.874 1545,104.5C 1545.5,167.166 1545.67,229.832 1545.5,292.5C 1538.83,292.5 1532.17,292.5 1525.5,292.5C 1525.17,229.095 1525.5,165.762 1526.5,102.5 Z"/></g>
<g><path style="opacity:0.008" fill="#000000" d="M 1232.5,145.5 C 1233.53,145.897 1233.69,146.563 1233,147.5C 1232.54,146.906 1232.37,146.239 1232.5,145.5 Z"/></g>
<g><path style="opacity:0.866" fill="#000000" d="M 36.5,415.5 C 40.4367,415.207 44.27,415.54 48,416.5C 55.7785,438.505 63.9451,460.338 72.5,482C 69.2397,482.784 66.0731,482.617 63,481.5C 61.1287,475.386 58.962,469.386 56.5,463.5C 47.1845,462.335 37.8511,462.168 28.5,463C 25.6685,469.328 23.3351,475.828 21.5,482.5C 18.4281,482.817 15.4281,482.484 12.5,481.5C 20.704,459.553 28.704,437.553 36.5,415.5 Z M 41.5,424.5 C 42.1174,424.611 42.6174,424.944 43,425.5C 46.4016,435.205 49.9016,444.872 53.5,454.5C 45.855,455.665 38.1883,455.831 30.5,455C 34.8616,445.082 38.5283,434.915 41.5,424.5 Z"/></g>
<g><path style="opacity:0.789" fill="#000000" d="M 528.5,415.5 C 531.5,415.5 534.5,415.5 537.5,415.5C 537.5,418.5 537.5,421.5 537.5,424.5C 534.5,424.5 531.5,424.5 528.5,424.5C 528.5,421.5 528.5,418.5 528.5,415.5 Z"/></g>
<g><path style="opacity:0.849" fill="#000000" d="M 297.5,419.5 C 300.167,419.5 302.833,419.5 305.5,419.5C 305.5,424.167 305.5,428.833 305.5,433.5C 309.167,433.5 312.833,433.5 316.5,433.5C 316.5,435.833 316.5,438.167 316.5,440.5C 312.833,440.5 309.167,440.5 305.5,440.5C 305.334,450.839 305.5,461.172 306,471.5C 306.273,473.329 307.107,474.829 308.5,476C 311.482,476.498 314.482,476.665 317.5,476.5C 317.5,478.833 317.5,481.167 317.5,483.5C 311.913,485.051 306.579,484.384 301.5,481.5C 300.416,480.335 299.583,479.002 299,477.5C 297.606,465.22 297.106,452.886 297.5,440.5C 295.167,440.5 292.833,440.5 290.5,440.5C 290.5,438.167 290.5,435.833 290.5,433.5C 292.833,433.5 295.167,433.5 297.5,433.5C 297.5,428.833 297.5,424.167 297.5,419.5 Z"/></g>
<g><path style="opacity:0.975" fill="#000000" d="M 1131.5,421.5 C 1138.35,420.297 1141.18,422.963 1140,429.5C 1136,439.938 1131.66,439.938 1127,429.5C 1125.82,425.152 1127.32,422.485 1131.5,421.5 Z"/></g>
<g><path style="opacity:0.849" fill="#000000" d="M 187.5,432.5 C 194.5,430.833 197.167,433.5 195.5,440.5C 188.735,439.469 183.568,441.802 180,447.5C 178.564,459.09 178.064,470.757 178.5,482.5C 175.833,482.5 173.167,482.5 170.5,482.5C 170.5,466.167 170.5,449.833 170.5,433.5C 173.167,433.5 175.833,433.5 178.5,433.5C 178.338,435.527 178.505,437.527 179,439.5C 180.851,435.843 183.684,433.51 187.5,432.5 Z"/></g>
<g><path style="opacity:0.867" fill="#000000" d="M 657.5,432.5 C 666.698,430.606 673.531,433.606 678,441.5C 679.446,455.093 679.946,468.76 679.5,482.5C 676.833,482.5 674.167,482.5 671.5,482.5C 671.667,470.495 671.5,458.495 671,446.5C 666.672,438.949 660.839,437.615 653.5,442.5C 651.226,444.713 649.726,447.379 649,450.5C 648.5,461.161 648.333,471.828 648.5,482.5C 645.833,482.5 643.167,482.5 640.5,482.5C 640.5,466.167 640.5,449.833 640.5,433.5C 643.167,433.5 645.833,433.5 648.5,433.5C 648.338,435.527 648.505,437.527 649,439.5C 650.851,435.843 653.684,433.51 657.5,432.5 Z"/></g>
<g><path style="opacity:0.806" fill="#000000" d="M 929.5,432.5 C 931.01,433.728 932.51,433.728 934,432.5C 934.692,433.025 935.192,433.692 935.5,434.5C 928.648,453.852 921.482,473.185 914,492.5C 910.669,500.918 904.502,504.251 895.5,502.5C 895.187,499.753 895.52,497.086 896.5,494.5C 898.853,495.565 901.186,495.398 903.5,494C 905.93,490.722 907.597,487.055 908.5,483C 902.795,466.718 896.795,450.551 890.5,434.5C 893.5,433.167 896.5,433.167 899.5,434.5C 903.92,446.932 908.42,459.265 913,471.5C 916.142,458.74 920.475,446.407 926,434.5C 927.302,433.915 928.469,433.249 929.5,432.5 Z"/></g>
<g><path style="opacity:0.85" fill="#000000" d="M 1044.5,432.5 C 1062.96,431.245 1072.63,439.912 1073.5,458.5C 1071.83,479.654 1060.83,487.488 1040.5,482C 1032,476.342 1028,468.342 1028.5,458C 1028.07,445.645 1033.41,437.145 1044.5,432.5 Z M 1047.5,439.5 C 1055.95,438.805 1061.45,442.472 1064,450.5C 1065.96,457.392 1065.29,464.058 1062,470.5C 1056.52,477.037 1050.02,478.204 1042.5,474C 1035.66,465.08 1034.82,455.58 1040,445.5C 1042.13,442.847 1044.63,440.847 1047.5,439.5 Z"/></g>
<g><path style="opacity:0.849" fill="#000000" d="M 1333.5,432.5 C 1340.5,430.833 1343.17,433.5 1341.5,440.5C 1334.73,439.469 1329.57,441.802 1326,447.5C 1324.56,459.09 1324.06,470.757 1324.5,482.5C 1321.83,482.5 1319.17,482.5 1316.5,482.5C 1316.5,466.167 1316.5,449.833 1316.5,433.5C 1319.17,433.5 1321.83,433.5 1324.5,433.5C 1324.34,435.527 1324.5,437.527 1325,439.5C 1326.85,435.843 1329.68,433.51 1333.5,432.5 Z"/></g>
<g><path style="opacity:0.841" fill="#000000" d="M 1559.5,432.5 C 1564.51,432.334 1569.51,432.501 1574.5,433C 1581.26,435.573 1584.59,440.406 1584.5,447.5C 1581.83,447.5 1579.17,447.5 1576.5,447.5C 1575.94,441.623 1572.61,438.956 1566.5,439.5C 1561.44,439.227 1558.44,441.561 1557.5,446.5C 1557.88,448.383 1558.88,449.883 1560.5,451C 1566.51,453.002 1572.51,455.002 1578.5,457C 1586.75,462.065 1588.58,468.899 1584,477.5C 1575.06,485.264 1565.22,486.43 1554.5,481C 1550.74,477.648 1548.41,473.481 1547.5,468.5C 1550.11,467.348 1552.77,467.182 1555.5,468C 1557.33,474.172 1561.5,477.005 1568,476.5C 1573.66,477.263 1577.16,474.93 1578.5,469.5C 1577.78,467.272 1576.45,465.439 1574.5,464C 1569.17,462.333 1563.83,460.667 1558.5,459C 1549.93,454.955 1547.43,448.455 1551,439.5C 1553.44,436.546 1556.27,434.213 1559.5,432.5 Z"/></g>
<g><path style="opacity:0.855" fill="#000000" d="M 1703.5,432.5 C 1717.35,430.847 1725.85,436.847 1729,450.5C 1731.7,463.242 1728.2,473.742 1718.5,482C 1709.54,486.257 1701.7,484.757 1695,477.5C 1694.5,485.827 1694.33,494.16 1694.5,502.5C 1691.83,502.5 1689.17,502.5 1686.5,502.5C 1686.5,479.5 1686.5,456.5 1686.5,433.5C 1689.17,433.5 1691.83,433.5 1694.5,433.5C 1694.34,435.527 1694.5,437.527 1695,439.5C 1697.44,436.546 1700.27,434.213 1703.5,432.5 Z M 1704.5,439.5 C 1713.96,438.796 1719.46,443.129 1721,452.5C 1722.15,459.19 1721.15,465.524 1718,471.5C 1712.91,477.116 1707.08,477.949 1700.5,474C 1692.97,464.093 1692.64,453.926 1699.5,443.5C 1701.21,442.113 1702.88,440.779 1704.5,439.5 Z"/></g>
<g><path style="opacity:0.85" fill="#000000" d="M 1841.5,432.5 C 1846.18,432.334 1850.85,432.501 1855.5,433C 1860.57,434.406 1864.07,437.572 1866,442.5C 1866.33,453.167 1866.67,463.833 1867,474.5C 1868.05,476.107 1869.55,476.773 1871.5,476.5C 1872.58,483.065 1869.91,485.232 1863.5,483C 1861.38,481.269 1859.88,479.102 1859,476.5C 1850.9,484.82 1841.73,486.32 1831.5,481C 1827.24,475.72 1826.41,469.886 1829,463.5C 1830.87,461.291 1833.04,459.458 1835.5,458C 1842.18,455.998 1848.85,453.998 1855.5,452C 1859.64,448.021 1859.31,444.355 1854.5,441C 1848.1,438.188 1842.6,439.355 1838,444.5C 1837.52,445.448 1837.35,446.448 1837.5,447.5C 1834.48,447.665 1831.48,447.498 1828.5,447C 1829.9,439.434 1834.24,434.6 1841.5,432.5 Z M 1857.5,456.5 C 1860.52,468.011 1856.02,474.678 1844,476.5C 1838.97,477.078 1836.13,474.912 1835.5,470C 1835.83,467.825 1836.83,465.992 1838.5,464.5C 1842.96,462.384 1847.63,460.884 1852.5,460C 1854.58,459.303 1856.25,458.136 1857.5,456.5 Z"/></g>
<g><path style="opacity:0.852" fill="#000000" d="M 1981.5,432.5 C 1990.02,431.05 1997.52,433.05 2004,438.5C 2006.03,441.561 2007.2,444.895 2007.5,448.5C 2004.75,448.813 2002.09,448.48 1999.5,447.5C 1994.98,438.976 1988.65,437.309 1980.5,442.5C 1972.31,453.605 1972.64,464.438 1981.5,475C 1991.4,478.888 1997.4,475.722 1999.5,465.5C 2002.52,465.335 2005.52,465.502 2008.5,466C 2004.87,480.822 1995.54,486.489 1980.5,483C 1968.53,475.874 1964.03,465.374 1967,451.5C 1968.48,442.499 1973.32,436.166 1981.5,432.5 Z"/></g>
<g><path style="opacity:0.841" fill="#000000" d="M 2121.5,432.5 C 2141.03,431.366 2150.37,440.699 2149.5,460.5C 2137.5,460.5 2125.5,460.5 2113.5,460.5C 2114.51,473.013 2121.18,478.18 2133.5,476C 2136.5,474.333 2138.83,472 2140.5,469C 2148.17,467.107 2150.01,469.274 2146,475.5C 2134.64,487.118 2122.97,487.452 2111,476.5C 2103.67,464.167 2103.67,451.833 2111,439.5C 2114,436.262 2117.5,433.929 2121.5,432.5 Z M 2123.5,439.5 C 2133.65,438.486 2139.65,442.986 2141.5,453C 2132.17,453.667 2122.83,453.667 2113.5,453C 2115.04,447.059 2118.37,442.559 2123.5,439.5 Z"/></g>
<g><path style="opacity:0.868" fill="#000000" d="M 528.5,433.5 C 531.167,433.5 533.833,433.5 536.5,433.5C 536.5,449.833 536.5,466.167 536.5,482.5C 533.833,482.5 531.167,482.5 528.5,482.5C 528.5,466.167 528.5,449.833 528.5,433.5 Z"/></g>
<g><path style="opacity:0.865" fill="#000000" d="M 1173.5,433.5 C 1176.17,433.5 1178.83,433.5 1181.5,433.5C 1181.33,445.171 1181.5,456.838 1182,468.5C 1182.97,474.139 1186.3,476.805 1192,476.5C 1198.39,476.117 1202.39,472.783 1204,466.5C 1204.5,455.505 1204.67,444.505 1204.5,433.5C 1207.17,433.5 1209.83,433.5 1212.5,433.5C 1212.5,449.833 1212.5,466.167 1212.5,482.5C 1209.83,482.5 1207.17,482.5 1204.5,482.5C 1204.66,480.801 1204.49,479.134 1204,477.5C 1196.79,485.005 1188.63,486.172 1179.5,481C 1176.48,478.137 1174.65,474.637 1174,470.5C 1173.5,458.171 1173.33,445.838 1173.5,433.5 Z"/></g>
<g><path style="opacity:0.984" fill="#000000" d="M 1344.5,464.5 C 1351.56,463.725 1354.06,466.725 1352,473.5C 1350.92,480.635 1347.75,481.968 1342.5,477.5C 1341.17,474.833 1339.83,472.167 1338.5,469.5C 1339.79,466.871 1341.79,465.204 1344.5,464.5 Z"/></g>
</svg>
